name rise30.9205peak61.366fall85.3838.mot
datacolumns 19
datarows 18
range 15.44994700000000 15.47827600000000
endheader
time	ground_force1_vx	ground_force1_vy	ground_force1_vz	ground_force1_px	ground_force1_py	ground_force1_pz	ground_force2_vx	ground_force2_vy	ground_force2_vz	ground_force2_px	ground_force2_py	ground_force2_pz	ground_torque1_x	ground_torque1_y	ground_torque1_z	ground_torque2_x	ground_torque2_y	ground_torque2_z	
15.44994700000000	-49.43430400000000	825.09907599999997	54.51187000000000	0.15175800000000	0.00000000000000	0.10064200000000	0.00000000000000	0.00000000000000	0.00000000000000	0.00000000000000	0.00000000000000	0.00000000000000	0.00000000000000	24.86675300000000	0.00000000000000	0.00000000000000	0.00000000000000	0.00000000000000	
15.45161300000000	-49.90388700000000	824.48023300000000	54.56032000000000	0.15071300000000	0.00000000000000	0.10063600000000	0.00000000000000	0.00000000000000	0.00000000000000	0.00000000000000	0.00000000000000	0.00000000000000	0.00000000000000	24.82449500000000	0.00000000000000	0.00000000000000	0.00000000000000	0.00000000000000	
15.45328500000000	-50.37902500000000	823.74897599999997	54.59166400000000	0.14966400000000	0.00000000000000	0.10062800000000	0.00000000000000	0.00000000000000	0.00000000000000	0.00000000000000	0.00000000000000	0.00000000000000	0.00000000000000	24.77902300000000	0.00000000000000	0.00000000000000	0.00000000000000	0.00000000000000	
15.45494000000000	-50.86000800000000	822.90312500000005	54.60530300000000	0.14861400000000	0.00000000000000	0.10061800000000	0.00000000000000	0.00000000000000	0.00000000000000	0.00000000000000	0.00000000000000	0.00000000000000	0.00000000000000	24.73044800000000	0.00000000000000	0.00000000000000	0.00000000000000	0.00000000000000	
15.45660500000000	-51.34710000000000	821.94053599999995	54.60065500000000	0.14756200000000	0.00000000000000	0.10060400000000	0.00000000000000	0.00000000000000	0.00000000000000	0.00000000000000	0.00000000000000	0.00000000000000	0.00000000000000	24.67887700000000	0.00000000000000	0.00000000000000	0.00000000000000	0.00000000000000	
15.45827200000000	-51.84054100000000	820.85909600000002	54.57715600000000	0.14651100000000	0.00000000000000	0.10058800000000	0.00000000000000	0.00000000000000	0.00000000000000	0.00000000000000	0.00000000000000	0.00000000000000	0.00000000000000	24.62442200000000	0.00000000000000	0.00000000000000	0.00000000000000	0.00000000000000	
15.45994700000000	-52.34054000000000	819.65672199999995	54.53426400000000	0.14546000000000	0.00000000000000	0.10056900000000	0.00000000000000	0.00000000000000	0.00000000000000	0.00000000000000	0.00000000000000	0.00000000000000	0.00000000000000	24.56719200000000	0.00000000000000	0.00000000000000	0.00000000000000	0.00000000000000	
15.46160900000000	-52.84727400000000	818.33136000000002	54.47145500000000	0.14441000000000	0.00000000000000	0.10054600000000	0.00000000000000	0.00000000000000	0.00000000000000	0.00000000000000	0.00000000000000	0.00000000000000	0.00000000000000	24.50729600000000	0.00000000000000	0.00000000000000	0.00000000000000	0.00000000000000	
15.46327400000000	-53.36088600000000	816.88098200000002	54.38823200000000	0.14336300000000	0.00000000000000	0.10052000000000	0.00000000000000	0.00000000000000	0.00000000000000	0.00000000000000	0.00000000000000	0.00000000000000	0.00000000000000	24.44484100000000	0.00000000000000	0.00000000000000	0.00000000000000	0.00000000000000	
15.46494400000000	-53.88148100000000	815.30358300000000	54.28411700000000	0.14231900000000	0.00000000000000	0.10049100000000	0.00000000000000	0.00000000000000	0.00000000000000	0.00000000000000	0.00000000000000	0.00000000000000	0.00000000000000	24.37992900000000	0.00000000000000	0.00000000000000	0.00000000000000	0.00000000000000	
15.46663200000000	-54.40912500000000	813.59718199999998	54.15866400000000	0.14127900000000	0.00000000000000	0.10045700000000	0.00000000000000	0.00000000000000	0.00000000000000	0.00000000000000	0.00000000000000	0.00000000000000	0.00000000000000	24.31266300000000	0.00000000000000	0.00000000000000	0.00000000000000	0.00000000000000	
15.46828000000000	-54.94384100000000	811.75981899999999	54.01145000000000	0.14024400000000	0.00000000000000	0.10042000000000	0.00000000000000	0.00000000000000	0.00000000000000	0.00000000000000	0.00000000000000	0.00000000000000	0.00000000000000	24.24313600000000	0.00000000000000	0.00000000000000	0.00000000000000	0.00000000000000	
15.46994000000000	-55.48560500000000	809.78955199999996	53.84208200000000	0.13921400000000	0.00000000000000	0.10038000000000	0.00000000000000	0.00000000000000	0.00000000000000	0.00000000000000	0.00000000000000	0.00000000000000	0.00000000000000	24.17143900000000	0.00000000000000	0.00000000000000	0.00000000000000	0.00000000000000	
15.47161800000000	-56.03434800000000	807.68445899999995	53.65019700000000	0.13819200000000	0.00000000000000	0.10033500000000	-1.29658700000000	3.33184900000000	0.58328300000000	0.00000000000000	0.00000000000000	0.00000000000000	0.00000000000000	24.09765700000000	0.00000000000000	0.00000000000000	0.16578900000000	0.00000000000000	
15.47327300000000	-56.58995000000000	805.44263400000000	53.43546400000000	0.13717600000000	0.00000000000000	0.10028600000000	-2.04746900000000	6.89130700000000	0.97971500000000	0.00000000000000	0.00000000000000	0.00000000000000	0.00000000000000	24.02186600000000	0.00000000000000	0.00000000000000	0.28597200000000	0.00000000000000	
15.47493900000000	-57.15223700000000	803.06218899999999	53.19758300000000	0.13616900000000	0.00000000000000	0.10023200000000	-2.89026700000000	11.25673900000000	1.43755000000000	0.00000000000000	0.00000000000000	0.00000000000000	0.00000000000000	23.94413600000000	0.00000000000000	0.00000000000000	0.42636200000000	0.00000000000000	
15.47662200000000	-57.72098100000000	800.54125499999998	52.93628900000000	0.13517000000000	0.00000000000000	0.10017500000000	-3.79726300000000	16.39987800000000	1.94560300000000	0.00000000000000	0.00000000000000	0.00000000000000	0.00000000000000	23.86452800000000	0.00000000000000	0.00000000000000	0.58405000000000	0.00000000000000	
15.47827600000000	-58.29589600000000	797.87797699999999	52.65135400000000	0.13418100000000	0.00000000000000	0.10011300000000	-4.73427600000000	22.25894300000000	2.48911200000000	0.00000000000000	0.00000000000000	0.00000000000000	0.00000000000000	23.78309400000000	0.00000000000000	0.00000000000000	0.75504800000000	0.00000000000000	
